<svg id="Capa_1" enable-background="new 0 0 512 512" height="512" viewBox="0 0 512 512" width="512" xmlns="http://www.w3.org/2000/svg"><g><g><path d="m140 371.255v24.704c0 14.076 11.393 25.487 25.447 25.487h161.006l68.121 50.287 8.429-50.287h43.549c14.054 0 25.448-11.411 25.448-25.487v-198.061c0-14.076-11.393-25.487-25.448-25.487h-51.595" fill="#ffda8f"/><g><g><g><path d="m205.754 348.076-40.207.013-68.121 50.287-8.429-50.287h-53.55c-14.054 0-25.447-11.411-25.447-25.487v-238.062c0-14.076 11.393-25.487 25.447-25.487h331.105c14.055 0 25.448 11.411 25.448 25.487v238.062c0 14.076-11.393 25.487-25.447 25.487l-70.386-.013" fill="#ccf5fc"/></g></g></g><g><path d="m240.033 136.008c-24.672 0-44.029 27.509-44.029 27.509s-18.259-27.509-44.04-27.509c-25.076 0-45.553 20.683-46.894 45.724-.755 14.147 3.806 24.914 10.231 34.665 12.84 19.482 80.785 76.54 80.785 76.54s67.689-56.887 80.614-76.54c6.439-9.796 10.987-20.518 10.229-34.665-1.34-25.041-21.818-45.724-46.896-45.724z" fill="#ff9eb1"/></g></g><g><g><path d="m502 116.289c-5.523 0-10-4.478-10-10 0-30.891-25.206-56.022-56.188-56.022-5.523 0-10-4.478-10-10s4.477-10 10-10c42.01 0 76.188 34.104 76.188 76.022 0 5.523-4.477 10-10 10z"/></g><g><path d="m458.093 116.289c-5.523 0-10-4.478-10-10 0-6.741-5.509-12.226-12.281-12.226-5.523 0-10-4.478-10-10s4.477-10 10-10c17.8 0 32.281 14.456 32.281 32.226 0 5.523-4.477 10-10 10z"/></g><path d="m196.086 302.939c-2.286 0-4.572-.78-6.431-2.342-7.068-5.937-69.443-58.577-82.703-78.696-5.576-8.461-12.871-21.885-11.867-40.701.787-14.691 7.005-28.485 17.512-38.841 10.696-10.543 24.677-16.35 39.368-16.35 19.714 0 35.297 12.573 44.185 21.962 9.083-9.339 24.876-21.962 43.884-21.962 14.691 0 28.673 5.807 39.37 16.35 10.506 10.355 16.726 24.149 17.512 38.84.995 18.564-5.814 31.498-11.858 40.692-13.344 20.29-75.494 72.784-82.537 78.703-1.861 1.563-4.148 2.345-6.435 2.345zm-44.122-156.93c-19.281 0-35.838 16.266-36.908 36.258-.539 10.104 2.031 18.667 8.595 28.629 8.887 13.484 50.632 50.33 72.432 68.935 21.726-18.562 63.315-55.323 72.262-68.928 6.566-9.989 9.138-18.554 8.598-28.635-1.07-19.993-17.628-36.259-36.91-36.259-15.847 0-31.262 16.807-35.864 23.282-1.908 2.685-4.998 4.275-8.317 4.216-3.294-.053-6.357-1.714-8.179-4.459-.14-.207-15.713-23.039-35.709-23.039z"/><g><path d="m251.14 358.069c-4.186 0-7.993-2.691-9.405-6.626-1.446-4.03-.089-8.699 3.319-11.3 3.152-2.406 7.497-2.706 10.964-.792 3.748 2.069 5.771 6.483 4.932 10.678-.925 4.627-5.094 8.04-9.81 8.04z"/></g><path d="m446.552 162.411h-44.552v-77.871c0-19.567-15.902-35.487-35.448-35.487h-331.105c-19.546 0-35.447 15.92-35.447 35.487v238.062c0 19.567 15.901 35.487 35.447 35.487h45.086l7.03 41.94c.575 3.429 2.889 6.314 6.112 7.617 1.21.489 2.483.729 3.749.729 2.106 0 4.193-.665 5.94-1.955l26.636-19.661v9.201c0 19.567 15.902 35.486 35.448 35.486h157.714l65.473 48.332c1.747 1.29 3.834 1.955 5.94 1.955 1.266 0 2.539-.24 3.749-.729 3.223-1.304 5.538-4.189 6.112-7.617l7.03-41.94h35.086c19.546 0 35.448-15.919 35.448-35.486v-198.063c0-19.568-15.902-35.487-35.448-35.487zm15.448 233.549c0 8.539-6.93 15.486-15.448 15.486h-43.549c-4.885 0-9.055 3.529-9.862 8.347l-5.735 34.219-55.013-40.61c-1.72-1.271-3.801-1.955-5.939-1.955h-161.006c-8.518 0-15.448-6.947-15.448-15.486v-23.965l18.839-13.907 36.917-.012c5.523-.002 9.999-4.48 9.997-10.003-.002-5.522-4.479-9.997-10-9.997h-.003l-40.207.013c-2.137.001-4.217.686-5.936 1.955l-55.013 40.61-5.735-34.219c-.808-4.817-4.978-8.347-9.862-8.347h-53.55c-8.518 0-15.447-6.947-15.447-15.487v-238.062c0-8.54 6.93-15.487 15.447-15.487h331.105c8.518 0 15.448 6.947 15.448 15.487v238.062c0 8.54-6.93 15.487-15.446 15.487l-70.386-.013h-.002c-5.522 0-9.999 4.476-10 9.998-.001 5.523 4.476 10.001 9.998 10.002l70.388.013c19.546 0 35.448-15.92 35.448-35.487v-140.19h44.552c8.518 0 15.448 6.947 15.448 15.486z"/></g></g></svg>